# xmcd
#
# Track frame offsets:
#	150
#	19304
#	35835
#	55988
#	75896
#	94944
#	115502
#	134663
#	153450
#	171202
#	192167
#	224055
#	240467
#	259757
#	282314
#	300061
#	314670
#	340041
#
# Disc length: 4706 seconds
# Revision: 0
# Processed by: cddbd v1.5.2PL0 Copyright (c) Steve Scherf et al.
# Submitted via: dBpowerAMP V12.0
#
DISCID=fc126012
DTITLE=Joe Ely - The Definitive Collection
DYEAR=2013
DGENRE=Country
TTITLE0=Drivin' To The Poorhouse In A Limousine [Live]
TTITLE1=Row Of Dominoes [live]
TTITLE2=Slow You Down
TTITLE3=Settle For Love
TTITLE4=Every Night About This Time
TTITLE5=The Road Goes On Forever
TTITLE6=Highways And Heartaches
TTITLE7=Saint Valentine
TTITLE8=Ranches And Rivers
TTITLE9=Letter To Laredo
TTITLE10=Gallo Del Cielo
TTITLE11=She Finally Spoke Spanish To Me
TTITLE12=All Just To Get To You
TTITLE13=Up On The Ridge
TTITLE14=You're Workin' For The Man
TTITLE15=Sue Me Sue
TTITLE16=I'm A Thousand Miles From Home [Ely]
TTITLE17=You Can Bet I'm Gone
EXTD=
EXTT0=
EXTT1=
EXTT2=
EXTT3=
EXTT4=
EXTT5=
EXTT6=
EXTT7=
EXTT8=
EXTT9=
EXTT10=
EXTT11=
EXTT12=
EXTT13=
EXTT14=
EXTT15=
EXTT16=
EXTT17=
PLAYORDER=
